<?xml version="1.0" encoding="utf-8"?>
<!-- Generator: Adobe Illustrator 16.0.0, SVG Export Plug-In . SVG Version: 6.00 Build 0)  -->
<!DOCTYPE svg PUBLIC "-//W3C//DTD SVG 1.1//EN" "http://www.w3.org/Graphics/SVG/1.1/DTD/svg11.dtd">
<svg version="1.1" id="Layer_1" xmlns="http://www.w3.org/2000/svg" xmlns:xlink="http://www.w3.org/1999/xlink" x="0px" y="0px"
	 width="765.077px" height="342.034px" viewBox="0 0 765.077 342.034" enable-background="new 0 0 765.077 342.034"
	 xml:space="preserve">
<g>
	<g>
		<g>
			<path fill-rule="evenodd" clip-rule="evenodd" fill="#333333" d="M166.735,61.996c-1.745,0-3.487-0.015-5.231,0.008
				c-0.846,0.014-1.087-0.315-1.081-1.173c0.032-3.888,0.196-7.792-0.111-11.659c-0.238-2.925-0.989-5.843-1.785-8.685
				c-0.475-1.696-1.266-3.273-1.226-5.114c0.089-4.24,3.206-7.856,7.314-8.979c4.84-1.32,10.429,2.339,11.371,7.109
				c0.423,2.124,0.098,3.998-0.584,5.973c-0.658,1.918-1.117,3.917-1.545,5.907c-0.914,4.288-1.256,8.633-1.031,13.017
				c0.042,0.781,0.156,1.557,0.27,2.329c0.152,0.989-0.028,1.255-1.029,1.265C170.288,62.014,168.513,61.996,166.735,61.996z"/>
			<path fill-rule="evenodd" clip-rule="evenodd" fill="#333333" d="M166.832,279.012c1.778,0,3.556,0.029,5.333-0.018
				c0.87-0.016,1.05,0.354,0.939,1.133c-0.489,3.433-0.518,6.871,0.02,10.297c0.482,3.094,0.983,6.191,1.591,9.259
				c0.242,1.218,0.893,2.349,1.212,3.563c0.957,3.634-0.221,6.648-2.912,9.107c-3.164,2.887-7.417,3.25-11.178,1.055
				c-3.431-2.006-5.256-6.298-4.276-10.257c0.331-1.348,0.944-2.62,1.287-3.965c0.457-1.777,0.786-3.585,1.147-5.384
				c0.786-3.883,0.738-7.81,0.645-11.74c-0.021-0.613-0.073-1.231-0.185-1.833c-0.177-0.962,0.185-1.271,1.146-1.239
				C163.344,279.053,165.085,279.012,166.832,279.012z"/>
			<path fill-rule="evenodd" clip-rule="evenodd" fill="#333333" d="M58.229,170.543c0,1.777-0.023,3.556,0.011,5.335
				c0.013,0.791-0.314,0.932-1.064,0.93c-3.954-0.016-7.932-0.172-11.864,0.138c-2.858,0.226-5.7,0.985-8.489,1.73
				c-1.596,0.424-3.064,1.272-4.8,1.266c-4.065-0.018-7.372-2.424-8.927-6.166c-1.909-4.602,0.519-10.135,5.246-12.094
				c2.469-1.022,4.926-0.848,7.453,0.132c2.043,0.79,4.219,1.318,6.381,1.706c3.966,0.703,7.973,1.148,12.014,0.91
				c0.915-0.054,1.833-0.161,2.741-0.288c1.076-0.149,1.295-0.002,1.299,1.066C58.235,166.986,58.229,168.763,58.229,170.543z"/>
			<path fill-rule="evenodd" clip-rule="evenodd" fill="#333333" d="M94.236,252.053c-0.061,0.044-0.343,0.231-0.607,0.438
				c-4.67,3.62-8.285,8.166-11.412,13.122c-0.864,1.367-1.565,2.84-2.301,4.287c-1.841,3.593-4.83,5.45-8.806,5.388
				c-4.068-0.064-7.232-2.664-8.686-6.491c-0.906-2.383-0.584-4.571,0.373-6.833c1.127-2.687,3.247-4.083,5.812-5.202
				c1.843-0.812,3.507-2.058,5.197-3.192c3.057-2.05,5.902-4.358,8.45-7.014c0.846-0.883,1.593-1.857,2.38-2.793
				c0.239-0.285,0.456-0.585,0.843-1.094C88.447,245.849,91.243,248.854,94.236,252.053z"/>
			<path fill-rule="evenodd" clip-rule="evenodd" fill="#333333" d="M94.616,89.316c-2.031,1.948-3.931,3.762-5.816,5.583
				c-0.885,0.852-1.789,1.692-2.61,2.604c-0.549,0.612-0.863,0.474-1.368-0.064c-2.048-2.184-3.969-4.536-6.263-6.426
				c-2.913-2.393-6.118-4.441-9.248-6.549c-1.34-0.902-2.932-1.45-4.219-2.41c-2.691-2.006-3.802-6.366-2.778-9.542
				c0.928-2.879,2.684-4.902,5.452-6.112c2.775-1.22,5.419-0.949,8.05,0.424c2.333,1.218,3.748,3.105,4.672,5.55
				c0.525,1.373,1.498,2.579,2.307,3.839c2.591,4.033,5.609,7.711,9.214,10.892C92.767,87.776,93.554,88.418,94.616,89.316z"/>
			<path fill-rule="evenodd" clip-rule="evenodd" fill="#333333" d="M176.537,71.556c-0.936-0.058-1.677-0.14-2.418-0.141
				c-4.889-0.016-9.77-0.006-14.649-0.006c-0.072,0-0.142,0.029-0.208,0.023c-0.735-0.023-1.47-0.053-2.205-0.08
				c0.171-0.748,0.219-1.551,0.538-2.23c1.811-3.897,5.355-6.174,9.535-6.009c4.33,0.168,7.91,2.904,9.281,7.256
				C176.508,70.681,176.484,71.031,176.537,71.556z"/>
			<path fill-rule="evenodd" clip-rule="evenodd" fill="#333333" d="M59.168,170.504c0.243-4.304,3.127-8.269,7.167-9.585
				c1.352-0.439,1.543-0.283,1.506,1.146c-0.117,4.395-0.261,8.789-0.321,13.184c-0.018,1.392,0.221,2.782,0.335,4.172
				c0.06,0.753-0.259,0.985-0.991,0.755c-2.902-0.904-5.177-2.612-6.434-5.405C59.832,173.429,59.578,171.933,59.168,170.504z"/>
			<path fill-rule="evenodd" clip-rule="evenodd" fill="#333333" d="M158.369,269.661c4.198,0.031,8.396,0.097,12.594,0.078
				c1.46-0.01,2.92-0.25,4.385-0.329c1.229-0.066,1.383,0.124,1.016,1.26c-1.027,3.187-3.105,5.458-6.271,6.534
				c-5.072,1.729-10.036-0.412-12.442-5.229c-0.166-0.333-0.25-0.703-0.358-1.061c-0.475-1.553-0.473-1.553,1.078-1.508
				C158.369,269.493,158.369,269.574,158.369,269.661z"/>
			<path fill-rule="evenodd" clip-rule="evenodd" fill="#333333" d="M89.921,233.53c1.092,1.211,2.116,2.472,3.26,3.61
				c3.137,3.107,6.304,6.191,9.516,9.221c1.119,1.057,1.152,1.208-0.276,1.897c-5.386,2.608-11.392,0.134-13.762-5.13
				C87.426,240.375,87.972,235.669,89.921,233.53z"/>
			<path fill-rule="evenodd" clip-rule="evenodd" fill="#333333" d="M103.796,93.514c-1.021,0.923-1.943,1.673-2.771,2.513
				c-3.471,3.518-6.923,7.053-10.362,10.609c-0.752,0.78-0.961,0.828-1.47-0.099c-2.953-5.382-0.526-12.028,5.099-14.167
				C97.561,91.128,100.687,91.481,103.796,93.514z"/>
		</g>
		<path fill="#333333" d="M236.378,231.722c0,0-0.271,0.333-0.8,0.973c-0.536,0.631-1.293,1.605-2.352,2.812
			c-2.192,2.359-5.405,5.891-10.145,9.701c-4.719,3.822-10.894,8.036-18.688,11.656c-3.898,1.791-8.184,3.465-12.852,4.778
			c-4.65,1.354-9.684,2.414-15.003,2.99c-0.662,0.077-1.333,0.176-2.008,0.234c-0.674,0.047-1.35,0.093-2.031,0.138
			c-0.684,0.044-1.372,0.087-2.063,0.131l-0.517,0.033l-0.26,0.017l-0.36,0.004l-0.998,0.012c-1.348,0.008-2.635,0.07-4.074,0.031
			c-1.462-0.057-2.931-0.115-4.417-0.17c-5.799-0.381-11.775-1.355-17.789-2.933c-12.004-3.188-24.149-9.012-34.822-17.606
			c-5.347-4.269-10.309-9.227-14.738-14.731c-4.432-5.502-8.361-11.55-11.499-18.071c-3.142-6.511-5.647-13.418-7.259-20.575
			c-0.839-3.568-1.407-7.202-1.847-10.852c-0.211-1.823-0.312-3.661-0.465-5.494c-0.048-0.917-0.061-1.837-0.091-2.755l-0.038-1.376
			l-0.022-0.691l-0.006-0.345l0.006-0.509l0.067-2.558l0.036-1.276l0.022-0.646l0.051-0.712l0.217-2.85l0.115-1.423
			c0.047-0.467,0.115-0.914,0.171-1.371c0.246-1.825,0.432-3.653,0.798-5.454l0.491-2.71c0.173-0.898,0.409-1.787,0.604-2.682
			c1.653-7.146,4.175-14.051,7.355-20.544c0.852-1.597,1.646-3.22,2.544-4.778l1.362-2.325l0.683-1.16l0.738-1.125
			c0.985-1.495,1.955-2.993,3.034-4.408l1.575-2.149l1.668-2.064c4.461-5.481,9.436-10.425,14.81-14.665
			c10.742-8.506,22.896-14.299,34.929-17.412c6.019-1.547,12.003-2.48,17.808-2.834c1.449-0.059,2.893-0.11,4.315-0.165
			c1.423,0.018,2.836,0.033,4.231,0.053l0.524,0.006l0.379,0.007l0.245,0.015l0.993,0.066c0.656,0.045,1.313,0.087,1.967,0.134
			c0.654,0.048,1.285,0.07,1.963,0.14c0.686,0.087,1.371,0.168,2.051,0.251c2.744,0.275,5.294,0.79,7.81,1.237
			c2.487,0.592,4.927,1.086,7.242,1.835c2.341,0.639,4.549,1.483,6.704,2.24c1.069,0.405,2.104,0.862,3.131,1.279
			c1.028,0.415,2.031,0.85,2.985,1.334c7.778,3.662,13.937,7.909,18.629,11.757c4.721,3.843,7.911,7.39,10.084,9.759
			c1.055,1.214,1.811,2.193,2.34,2.831c0.525,0.641,0.798,0.974,0.798,0.974s-1.293-1.119-3.715-3.216
			c-2.475-2.023-6.174-4.895-11.161-8.029c-5.005-3.109-11.41-6.315-19.05-8.938c-0.479-0.164-0.951-0.344-1.444-0.496
			c-0.491-0.145-0.985-0.289-1.487-0.436c-0.997-0.29-2.002-0.617-3.033-0.889c-2.082-0.494-4.198-1.066-6.418-1.429
			c-2.197-0.461-4.487-0.72-6.813-1.055c-2.343-0.19-4.747-0.453-7.121-0.469c-0.592-0.021-1.192-0.039-1.792-0.058
			c-0.612-0.018-1.285,0.008-1.934,0.012c-0.653,0.007-1.313,0.02-1.97,0.025l-0.995,0.016h-0.25c0.198,0.005-0.01,0.007,0,0.012
			l-0.118,0.006l-0.472,0.035c-1.263,0.085-2.54,0.17-3.827,0.257c-1.282,0.153-2.57,0.306-3.871,0.461
			c-5.184,0.726-10.468,1.887-15.704,3.632c-10.487,3.429-20.821,9.092-29.863,16.86c-4.486,3.917-8.683,8.312-12.38,13.168
			l-1.391,1.824l-1.297,1.895c-0.892,1.247-1.683,2.567-2.491,3.878l-0.614,0.978l-0.567,1.008l-1.137,2.019
			c-0.744,1.355-1.392,2.763-2.103,4.143c-2.642,5.618-4.622,11.573-6.026,17.68c-0.168,0.762-0.365,1.523-0.507,2.292l-0.403,2.319
			c-0.31,1.541-0.445,3.105-0.654,4.667c-0.046,0.387-0.102,0.782-0.137,1.162l-0.082,1.129l-0.168,2.253l-0.043,0.563l-0.017,0.637
			l-0.03,1.278l-0.059,2.558l0.102,4.561c0.134,1.568,0.2,3.142,0.372,4.703c0.36,3.125,0.823,6.234,1.521,9.289
			c1.371,6.112,3.32,12.079,5.933,17.71c0.663,1.403,1.37,2.78,2.067,4.16c0.772,1.342,1.488,2.711,2.292,4.023
			c0.83,1.297,1.576,2.646,2.478,3.887c0.861,1.267,1.722,2.541,2.668,3.734c3.683,4.871,7.845,9.291,12.317,13.229
			c8.98,7.848,19.306,13.548,29.773,17.041c5.229,1.775,10.508,2.962,15.687,3.723c1.263,0.153,2.525,0.306,3.767,0.453
			c1.27,0.14,2.678,0.189,3.981,0.289l0.999,0.062l0.122,0.008c0.14,0.003-0.052,0.003,0.01,0.003l0.236,0.006l0.473,0.008
			c0.629,0.008,1.255,0.018,1.875,0.023c0.628,0.013,1.249,0.025,1.867,0.039c0.613,0,1.229-0.039,1.841-0.05
			c1.224-0.056,2.441-0.043,3.632-0.147c1.198-0.104,2.38-0.203,3.547-0.304c1.173-0.118,2.319-0.31,3.461-0.457
			c0.567-0.083,1.139-0.145,1.698-0.24c0.558-0.105,1.115-0.209,1.665-0.31c1.098-0.223,2.207-0.375,3.267-0.643
			c1.068-0.257,2.125-0.511,3.161-0.761c1.041-0.244,2.034-0.587,3.041-0.868c0.993-0.3,1.984-0.56,2.936-0.914
			c7.65-2.59,14.07-5.761,19.087-8.852c5.01-3.109,8.722-5.955,11.199-7.96C235.079,232.839,236.378,231.722,236.378,231.722z"/>
		<g>
			<path fill-rule="evenodd" clip-rule="evenodd" fill="#1A567B" d="M114.989,188.224c0.026,0.44-0.042,0.71,0.068,0.874
				c0.941,1.454,1.917,2.887,2.883,4.329c0.148,0.223,0.436,0.461,0.422,0.676c-0.03,0.377-0.15,0.836-0.407,1.083
				c-0.13,0.131-0.787,0.007-0.938-0.198c-0.946-1.314-1.928-2.624-2.692-4.048c-0.869-1.628-1.425-3.427-2.304-5.051
				c-0.84-1.544-1.901-2.974-2.906-4.428c-2.455-3.542-2.881-7.397-2.063-11.558c0.206-1.04-0.183-2.296-0.588-3.34
				c-0.565-1.461-1.533-2.772-1.151-4.487c0.065-0.283-0.138-0.718-0.353-0.958c-0.715-0.774-1.058-1.623-1.085-2.697
				c-0.008-0.362-0.667-0.705-1.2-0.898c-0.588-1.681-1.175-3.363-1.76-5.043c-0.274-0.772-0.711-0.676-1.365-0.406
				c-1.634,0.679-1.964,2.073-2.054,3.572c-0.054,0.957-0.373,1.597-1.265,1.909c-1.916-2.223-0.482-4.425,0.115-6.468
				c1.07-3.63,2.499-7.159,3.833-10.708c0.45-1.19,1.042-2.333,1.638-3.457c0.615-1.172,1.87-1.367,2.97-1.521
				c1.185-0.164,2.025-0.478,2.647-1.614c0.561-1.034,1.506-1.636,2.896-1.555c0.818,0.05,1.712-0.393,2.511-0.757
				c1.46-0.666,2.648,0.089,3.841,0.674c0.311,0.153,0.345,0.863,0.538,1.417c1.121-0.172,2.43-1.15,3.46,0.469
				c0.376-1.472-0.022-1.924-1.253-1.795c-0.373,0.039-0.791-0.134-1.149-0.291c-0.457-0.196-0.898-0.441-1.303-0.732
				c-0.313-0.222-0.785-0.562-0.769-0.825c0.021-0.372,0.358-0.824,0.694-1.047c0.432-0.287,1.004-0.375,1.501-0.584
				c0.103-0.042,0.142-0.234,0.306-0.534c-0.414,0.081-0.676,0.081-0.891,0.188c-0.721,0.353-1.243,0.27-1.606-0.534
				c-0.331-0.749-0.841-0.676-1.371-0.168c-0.172,0.159-0.317,0.398-0.519,0.451c-0.419,0.108-0.895,0.225-1.287,0.122
				c-0.155-0.042-0.281-0.708-0.196-1.026c0.569-2.003,1.437-3.868,3.034-5.268c1.306-1.154,3.014-1.028,4.576,0.23
				c0.806,0.646,1.59,1.314,2.556,2.112c0.127-0.525,0.161-0.897,0.304-1.218c0.494-1.066,0.96-2.168,1.609-3.14
				c0.16-0.246,0.95-0.085,1.455-0.113c-0.021,0.471,0.157,1.146-0.091,1.375c-1.159,1.098-0.741,2.459-0.72,3.721
				c0.004,0.368,0.526,0.748,0.846,1.084c0.206,0.215,0.562,0.321,0.701,0.562c0.364,0.627-1.046,3.558-1.758,3.752
				c-0.438,0.122-0.88,0.257-1.389,0.404c0.612,1.001,1.419,1.077,2.37,0.901c1.107-0.198,1.457-1.052,1.817-1.915
				c0.142-0.358,0.161-0.765,0.299-1.125c0.472-1.249,0.777-1.327,1.923-0.697c0.32,0.178,0.754,0.141,1.341,0.236
				c-1.647-1.777-1.529-3.77,0.106-5.293c0.424-0.397,1.701-0.19,1.942,0.379c0.261,0.596,0.446,1.235,0.592,1.878
				c0.24,1.053,0.417,2.125,0.616,3.192c0.117,0.004,0.23,0.008,0.347,0.012c0.231-0.321,0.462-0.643,0.688-0.96
				c1.249,0.261,1.566,0.985,1.243,2.125c-0.116,0.416-0.065,0.876-0.1,1.409c0.316-0.07,0.556-0.058,0.588-0.137
				c0.452-1.075,1.031-2.134,1.259-3.256c0.279-1.34,0.529-1.647,2.037-1.495c1.334,0.139,1.658,0.728,1.76,1.832
				c0.217,2.205-0.271,4.038-1.672,5.804c-0.534,0.666-0.856,1.975,0.349,2.838c0.478,0.345,0.802,0.947,1.094,1.485
				c0.154,0.29,0.089,0.699,0.128,1.055c-0.397,0.033-0.847,0.196-1.18,0.068c-0.625-0.238-1.121-0.653-1.63,0.224
				c-0.16,0.277-0.788,0.451-1.163,0.401c-0.533-0.074-1.156-0.289-1.492-0.665c-0.222-0.242-0.068-0.884,0.007-1.337
				c0.078-0.478,0.265-0.935,0.263-1.487c-0.259,1.424-1.461,1.905-2.369,2.733c-1.421,1.299-2.564,2.908-3.74,4.457
				c-0.534,0.697-0.854,1.557-1.257,2.349c-0.667,1.33-0.507,2.031,0.628,2.997c0.16,0.138,0.3,0.36,0.345,0.563
				c0.298,1.425,1.303,2.108,2.551,2.606c1.013,0.402,1.954,0.953,2.955,1.38c0.757,0.325,1.528,0.654,2.337,0.83
				c1.319,0.291,1.638,0.581,1.642,1.909c0,0.701-0.031,1.404,0.017,2.104c0.059,0.869,1.097,2.089,1.899,2.12
				c0.902,0.041,0.895-0.684,0.821-1.327c-0.12-1.074-0.329-2.145-0.362-3.221c-0.014-0.368,0.302-0.889,0.63-1.098
				c1.682-1.109,2.187-3.322,1.068-5.038c-0.234-0.36-0.525-0.686-0.721-1.063c-0.114-0.221-0.215-0.614-0.099-0.755
				c1.295-1.625,0.641-3.518,0.744-5.287c0.099-1.713,0.024-1.719,1.782-1.729c0.508-0.002,1.019,0.041,1.52-0.017
				c1.139-0.141,2.039,0.104,2.644,1.196c0.188,0.348,0.594,0.612,0.958,0.829c1.805,1.117,2.214,2.422,1.347,4.408
				c-0.058,0.135-0.067,0.292-0.083,0.362c0.565,0.238,1.09,0.449,1.615,0.675c0.577,0.256,1.727-0.511,2.013-1.339
				c0.035-0.108,0.014-0.242,0.064-0.341c0.292-0.583,0.482-1.52,0.925-1.663c0.955-0.31,1.202,0.724,1.547,1.378
				c0.581,1.096,1.178,2.188,1.636,3.33c0.202,0.504,0.087,1.135,0.109,1.706c0.008,0.11-0.059,0.228-0.041,0.333
				c0.112,0.586,2.55,2.681,3.175,2.627c0.879-0.08,1.283,0.358,1.52,1.107c0.078,0.258,0.107,0.61,0.28,0.746
				c2.187,1.642,1.236,3.897,1.075,5.918c-0.073,0.927,0.074,1.121,0.906,1.278c0.477,0.091,0.985,0.511,1.279,0.925
				c0.406,0.569,0.691,1.25,0.895,1.924c0.162,0.552,0.356,1.282,0.12,1.702c-0.158,0.288-1.187,0.439-1.553,0.211
				c-1.738-1.098-3.601-1.542-5.877-1.323c0.848-1.924,1.587-3.618,2.329-5.306c-0.08-0.05-0.162-0.101-0.234-0.153
				c-1.251,0.604-2.506,1.206-3.921,1.889c-0.028,0.298-0.073,0.821-0.128,1.376c-1.135,0.19-2.158,0.292-2.733-0.945
				c-0.062-0.129-0.175-0.263-0.299-0.329c-1.206-0.648-3.827,0.511-4.222,1.954c0.82-0.451,1.561-0.926,2.351-1.264
				c1.492-0.629,2.24-0.049,1.971,1.497c-0.154,0.885,0.232,1.535,0.976,1.77c0.936,0.288,1.953,0.327,2.933,0.484
				c0.36,0.06,0.973,0.085,1.015,0.25c0.108,0.404,0.132,1.082-0.117,1.293c-0.771,0.654-1.668,1.15-2.535,1.694
				c-0.383,0.238-0.799,0.424-1.187,0.653c-0.399,0.236-0.753,0.621-1.182,0.718c-0.533,0.12-1.12,0.014-1.686,0.006
				c0.083-0.477,0.168-0.953,0.275-1.537c0.062,0.037-0.061-0.087-0.11-0.065c-1.089,0.519-2.197,1.004-3.249,1.595
				c-0.722,0.408-1.013,1.072-0.95,1.97c0.028,0.399-0.311,1.137-0.601,1.199c-2.637,0.581-3.172,2.784-3.993,4.84
				c-0.594,1.487-0.778,3.2-2.177,4.288c-0.703,0.552-1.352,1.173-2.081,1.687c-1.606,1.119-2.016,1.659-0.962,4.301
				c0.393,0.989,0.781,1.991,1.018,3.024c0.069,0.3-0.418,1.047-0.602,1.034c-0.511-0.046-1.225-0.244-1.452-0.627
				c-0.63-1.049-1.071-2.21-1.539-3.347c-0.384-0.916-0.995-1.469-2.016-1.487c-0.816-0.016-1.636-0.046-2.453,0.004
				c-0.31,0.017-0.799,0.153-0.892,0.366c-0.466,1.123-1.232,0.887-2.011,0.511c-2.299-1.117-4.364,0.192-4.433,2.759
				c-0.059,2.196-0.029,4.302,1.309,6.242c0.646,0.935,1.281,1.313,2.366,1.25c1.066-0.062,1.494-0.747,1.962-1.561
				c0.289-0.505,0.819-1.123,1.323-1.202c1.608-0.263,2.265,0.581,1.851,2.142c-0.07,0.259-0.207,0.503-0.279,0.762
				c-0.462,1.797-0.113,2.283,1.658,2.631c2.739,0.542,2.998,1.612,2.881,3.427c-0.153,2.292,0.536,2.902,2.834,2.838
				c0.499-0.012,1.148-0.13,1.48,0.127c1.102,0.866,1.701,0.279,2.472-0.494c0.464-0.471,1.218-0.66,1.846-0.96
				c0.175-0.081,0.465-0.058,0.536-0.18c0.871-1.516,1.954-0.73,2.864-0.174c1.926,1.177,3.9,1.862,6.19,1.405
				c0.411-0.083,0.967,0.048,1.325,0.279c1.381,0.895,2.847,1.735,4.021,2.862c1.217,1.167,2.717,1.01,4.108,1.332
				c2.259,0.521,3.755,1.712,4.24,4.067c0.072,0.356,0.566,0.757,0.954,0.893c1.381,0.494,2.786,0.946,4.209,1.297
				c1.385,0.337,2.837,0.414,4.195,0.815c1.437,0.426,2.837,1.038,4.195,1.688c0.837,0.404,0.817,2.147,0,3.147
				c-0.439,0.531-0.931,1.069-1.506,1.439c-1.373,0.889-1.918,2.189-2.36,3.697c-0.345,1.189-1.021,2.315-1.725,3.355
				c-0.701,1.039-1.77,1.434-3.096,1.508c-1.84,0.103-3.168,1.158-4.195,2.745c-1.095,1.696-2.56,3.026-4.605,3.588
				c-0.507,0.137-0.937,0.53-1.417,0.778c-0.768,0.398-1.508,0.991-2.322,1.107c-1.854,0.259-3.28,1.129-4.401,2.542
				c-0.932,1.173-2.078,1.371-3.438,1.034c-0.485-0.12-0.991-0.182-1.488-0.218c-1.029-0.08-1.374-0.606-1.244-1.6
				c0.063-0.509-0.024-1.218-0.341-1.566c-0.792-0.861-0.89-1.723-0.341-2.652c0.45-0.756,0.702-1.452,0.218-2.288
				c-0.124-0.209-0.092-0.531-0.067-0.796c0.109-1.421,0.201-2.846,0.379-4.259c0.179-1.472-0.485-2.49-1.775-2.919
				c-2.698-0.904-4.2-3.053-5.787-5.148c-0.335-0.436-0.657-0.869-0.995-1.297c-2.399-2.989-2.453-3.057-1.984-6.704
				c0.07-0.558,0.669-1.079,1.097-1.549c1.288-1.408,1.438-2.522,0.61-3.99c-0.343-0.614-0.763-0.852-1.397-0.753
				c-2.633,0.398-4.331-1.129-5.748-2.955c-1.261-1.63-2.693-2.807-4.721-3.345c-0.728-0.19-1.306-0.906-1.977-1.353
				c-0.367-0.256-0.809-0.691-1.165-0.647c-2.573,0.331-4.379-1.292-6.371-2.414c-1.531-0.86-2.554-2.13-3.129-3.866
				c-0.353-1.067-1.173-1.979-1.813-2.943c-1.129-1.709-2.28-3.409-3.43-5.111C115.422,188.71,115.265,188.553,114.989,188.224z"/>
			<path fill-rule="evenodd" clip-rule="evenodd" fill="#1A567B" d="M222.897,211.235c-1.044-0.428-1.885-0.808-2.759-1.121
				c-0.302-0.11-0.726-0.198-0.995-0.072c-2.025,0.953-4.225,1.369-6.311,2.12c-2.316,0.84-5.365-0.325-6.404-2.604
				c-0.362-0.797-1.131-1.399-1.657-2.133c-0.409-0.573-1.046-1.226-1.013-1.812c0.054-1.199,0.492-2.377,0.78-3.563
				c0.067-0.289,0.261-0.6,0.213-0.861c-0.918-4.312,1.161-7.438,4.114-10.139c1.134-1.043,2.143-1.99,2.387-3.647
				c0.188-1.274,0.964-2.291,2.097-3.081c1.734-1.209,1.547-2.521-0.395-3.394c-0.812-0.368-0.978-0.985-0.963-1.792
				c0.02-1.688,0.02-3.378-0.049-5.067c-0.046-1.225,0.86-2.112,2.145-2.009c1.044,0.083,2.094,0.146,3.14,0.178
				c0.94,0.023,1.451-0.447,1.439-1.417c-0.021-1.698-0.566-3.098-2.1-4.025c-0.292-0.18-0.672-0.72-0.587-0.922
				c0.171-0.405,0.565-0.819,0.972-1c1.044-0.463,2.195-0.697,3.19-1.226c0.523-0.279,0.835-0.978,1.21-1.507
				c0.829-1.169,1.566-2.404,2.486-3.5c0.362-0.434,1.098-0.559,1.307-0.908c-0.063-1.477-0.152-2.96-0.142-4.436
				c0.006-0.254,0.504-0.731,0.719-0.699c0.44,0.068,0.942,0.315,1.229,0.654c0.305,0.351,0.386,0.892,0.628,1.512
				c0.438-1.626-0.467-2.625-1.241-3.594c-0.184-0.228-0.945-0.041-1.433,0.025c-1.161,0.165-1.982-0.486-2.154-1.613
				c-0.136-0.857-0.3-1.75-0.677-2.519c-0.648-1.313-0.464-2.482,0.501-3.429c2.313-2.271,3.283-5.105,3.664-8.208
				c0.054-0.451-0.269-0.937-0.291-1.411c-0.03-0.618-0.16-1.417,0.156-1.824c0.436-0.556,1.221-0.87,1.908-1.169
				c0.161-0.072,0.528,0.336,0.682,0.443c0.556-0.373,1.214-1.115,1.553-0.989c0.97,0.358,2.015,0.895,2.672,1.669
				c1.764,2.067,3.343,4.292,4.979,6.443c1.328-0.697,1.317-0.66,1.885,0.691c0.667,1.602,1.593,3.109,2.152,4.739
				c1.015,2.96,1.853,5.979,2.751,8.978c2.278,7.61,2.785,15.428,2.438,23.292c-0.127,2.979-0.897,5.94-1.419,8.9
				c-0.326,1.86-0.632,3.734-1.118,5.558c-0.435,1.644-1.176,3.2-1.646,4.832c-1.283,4.443-3.266,8.592-5.343,12.698
				c-0.891,1.754-2.056,3.373-3.107,5.049c-3.586,5.725-8.361,10.442-13,15.272c-0.211,0.221-0.457,0.428-0.718,0.576
				c-0.831,0.458-1.32,0.232-1.301-0.699c0.038-2.232,0.375-4.407,1.577-6.368c0.503-0.824,1.011-1.649,1.438-2.517
				c0.58-1.175,0.591-2.406-0.046-3.563c-0.793-1.432-0.851-2.782,0.187-4.118C222.803,211.69,222.845,211.365,222.897,211.235z"/>
			<path fill-rule="evenodd" clip-rule="evenodd" fill="#1A567B" d="M171.767,136.084c-0.508,0.078-0.838,0.229-1.087,0.142
				c-0.33-0.112-0.74-0.353-0.857-0.643c-0.383-0.945-0.83-1.917-0.925-2.908c-0.151-1.602-0.13-3.232,0.029-4.831
				c0.042-0.457,0.755-0.91,1.238-1.252c1.186-0.831,1.431-1.454,0.823-2.388c-0.254,1.229-1.121,1.832-2.189,1.518
				c-0.788-0.23-1.472-2.046-1.147-3.042c0.375-1.158,1.402-1.438,2.896-0.795c-0.904-1.813-0.967-1.828-2.604-1.26
				c-0.266,0.089-0.821-0.006-0.889-0.167c-0.167-0.377-0.326-1.002-0.136-1.26c0.787-1.04,0.525-2.006,0.106-3.063
				c-0.714-1.83-1.314-3.665-2.646-5.241c-1.307-1.547-2.829-1.75-4.597-1.533c-0.729,0.089-1.463,0.209-2.191,0.335
				c-0.995,0.168-2.041,0.511-2.371-0.968c-0.026-0.143-0.27-0.292-0.439-0.341c-0.604-0.174-1.113-0.54-0.74-1.14
				c0.241-0.389,0.882-0.66,1.383-0.726c0.713-0.101,1.463,0.054,2.197,0.054c0.198,0,0.395-0.178,0.589-0.273
				c-0.002-0.11-0.012-0.223-0.021-0.333c-1.134,0-2.261-0.009-3.396,0.004c-0.959,0.012-1.539-0.4-1.387-1.388
				c0.063-0.362,0.416-0.831,0.75-0.962c1.39-0.554,2.844-0.962,4.237-1.51c0.391-0.151,0.662-0.596,0.997-0.91
				c-1.435-1.001-1.388-1.467,0.151-2.244c0.484-0.244,0.979-0.475,1.479-0.672c0.487-0.194,0.992-0.339,1.49-0.505
				c-0.023-0.107-0.045-0.213-0.063-0.322c-1.345,0.229-2.683,0.461-4.087,0.697c-0.34,1.692-1.808,2.432-3.115,3.188
				c-1.766,1.022-3.221,2.23-4.139,4.091c-0.215,0.434-0.779,0.804-1.264,0.978c-0.857,0.308-1.17,0.906-1.313,1.721
				c-0.267,1.576-1.315,2.329-2.927,2.261c-0.594-0.025-1.196,0.145-1.792,0.23c-1.11,0.157-2.216,0.392-3.324,0.428
				c-0.392,0.018-0.799-0.441-1.2-0.684c0.226-0.358,0.432-0.741,0.688-1.07c0.137-0.167,0.508-0.206,0.562-0.372
				c0.114-0.377,0.099-0.797,0.136-1.202c-0.273-0.008-0.569-0.082-0.822-0.016c-1.131,0.29-1.517-0.548-1.942-1.272
				c-0.413-0.689-0.942-1.398-0.074-2.168c0.723-0.643,1.404-1.334,2.114-1.996c0.916-0.85,1.913-0.59,3.038-0.263
				c-0.221-0.291-0.445-0.579-0.774-1.004c0.488-0.287,0.898-0.641,1.377-0.794c1.856-0.604,3.713-1.198,5.603-1.7
				c2.649-0.703,5.305-1.436,7.999-1.94c1.888-0.35,3.849-0.496,5.77-0.441c1.144,0.037,2.253,0.141,3.421,0.004
				c1.603-0.18,3.257,0.066,4.878-0.037c1.645-0.099,3.274-0.395,4.918-0.611c0.073-0.01,0.152-0.047,0.229-0.037
				c3.057,0.327,6.137,0.091,9.181,0.799c1.634,0.382,2.651,1.123,3.144,2.635c2.502-0.78,3.065-0.565,2.932,0.834
				c0.567-0.044,1.167-0.178,1.748-0.12c1.076,0.108,2.152,0.296,3.212,0.519c1.24,0.259,1.516,0.944,0.867,2.036
				c-0.513,0.861-1.058,1.708-1.576,2.569c-0.625,1.038-0.144,1.764,0.715,2.354c0.385,0.264,0.874,0.426,1.159,0.765
				c0.319,0.38,0.461,0.902,0.678,1.363c-0.42,0.174-0.837,0.358-1.267,0.519c-0.136,0.05-0.298,0.027-0.669,0.316
				c0.925,0.805,1.854,1.608,2.769,2.423c0.387,0.351,1.093,0.771,1.053,1.075c-0.072,0.474-0.651,0.873-0.932,1.216
				c-0.387,0.757-0.713,1.466-1.096,2.138c-0.422,0.739-0.631,1.426-0.695,2.355c-0.113,1.564,0.642,2.759,0.963,4.118
				c0.225,0.957-0.929,3.205-1.897,3.429c-0.254,0.059-0.573,0.087-0.731,0.252c-1.269,1.367-2.986,1.487-4.641,1.89
				c-0.802,0.191-1.619,0.788-2.169,1.425c-1.437,1.672-2.793,3.32-5.256,3.446c-1.301,0.067-1.628,1.376-1.824,2.234
				c-0.296,1.295-0.452,2.526-1.127,3.768c-0.633,1.171-0.648,2.685-0.908,4.054c-0.307,1.59-1.447,2.007-2.797,1.107
				c-0.878-0.589-1.874-1-2.804-1.506c-0.292-0.164-0.625-0.342-0.809-0.606c-0.684-0.976-1.318-1.984-1.954-2.991
				C170.911,138.667,170.704,137.445,171.767,136.084z"/>
			<path fill-rule="evenodd" clip-rule="evenodd" fill="#1A567B" d="M155.704,132.177c-0.434,1.309-0.059,2.031,0.533,2.685
				c0.52,0.577,1.188,1.063,1.549,1.723c0.351,0.629,0.591,1.44,0.539,2.151c-0.081,1.235-0.672,1.419-1.754,0.797
				c-0.558-0.325-1.168-0.575-1.753-0.855c-0.094,0.104-0.188,0.211-0.282,0.319c0.457,0.368,0.997,0.67,1.33,1.129
				c0.258,0.343,0.243,0.883,0.353,1.334c-0.416,0.025-0.881,0.182-1.241,0.06c-2.075-0.715-4.037-1.559-5.074-3.744
				c-0.404-0.862-1.15-1.389-2.17-0.631c-0.242,0.182-0.596,0.372-0.854,0.321c-0.602-0.116-1.459-0.219-1.678-0.62
				c-0.209-0.387,0.059-1.411,0.444-1.674c0.761-0.519,1.744-0.703,2.813-1.088c-0.398-1.58,2.11-2.338,1.594-4.305
				c-0.774,0.47-1.456,0.956-2.197,1.316c-0.825,0.398-1.648-0.018-1.913-0.872c-0.254-0.813,0.168-1.546,1.076-1.734
				c0.556-0.116,1.133-0.108,1.702-0.159c0.032-0.106,0.06-0.209,0.095-0.313c-0.51-0.227-1.009-0.446-1.646-0.73
				c-0.294-0.724-0.658-1.634-1.003-2.46c-2.236,0.828-4.354,0.799-6.471,0.737c-0.658-0.021-1.312-0.12-1.972-0.19
				c-0.896-0.094-1.202-0.575-0.705-1.322c0.536-0.804,0.604-1.286-0.445-1.644c-0.248-0.083-0.532-0.674-0.463-0.942
				c0.438-1.78,1.344-3.346,2.806-4.438c0.605-0.455,1.555-0.489,2.363-0.621c0.869-0.139,1.755-0.178,2.635-0.244
				c1.003-0.076,2.015-0.229,3.006-0.169c0.728,0.046,1.283,0.385,1.571,1.282c0.331,1.005,1.033,1.899,1.636,2.806
				c0.146,0.215,0.548,0.424,0.788,0.383c1.038-0.203,1.454,0.492,2.079,1.119c0.769,0.763,1.841,1.222,2.772,1.83
				c0.715,0.465,1.03,2.695,0.589,3.409c-0.13,0.211-0.037,0.786,0.154,0.931c1.381,1.04,2.817,2.013,4.223,3.021
				c0.18,0.127,0.364,0.312,0.42,0.511c0.256,0.872-1.055,3.469-1.892,3.805c-0.811,0.331-1.667-0.11-2.284-1.131
				C156.645,133.418,156.237,132.918,155.704,132.177z"/>
			<path fill-rule="evenodd" clip-rule="evenodd" fill="#1A567B" d="M217.553,153.107c0.223,0.545,0.393,1.119,0.685,1.626
				c0.945,1.619,1.954,3.2,2.889,4.822c0.496,0.848,0.051,1.599-0.631,2.004c-1.393,0.827-2.842,1.563-4.329,2.203
				c-0.795,0.345-1.388-0.215-0.959-0.906c0.636-1.032,0.145-2.143,0.563-3.136c0.012-0.033,0.003-0.083,0.023-0.112
				c1.539-2.178,0-3.824-0.979-5.55c-0.577-1.013-1.234-1.975-1.791-2.996c-0.585-1.066-0.384-1.424,0.79-1.639
				c0.499-0.091,0.981-0.275,1.478-0.322c0.795-0.073,1.382,0.149,1.374,1.133c0,0.302,0.136,0.755,0.359,0.883
				C217.836,151.574,217.872,152.25,217.553,153.107z"/>
			<path fill-rule="evenodd" clip-rule="evenodd" fill="#1A567B" d="M197.124,135.037c0.063-1.905,0.772-2.129,2.467-1.583
				c1.246,0.401,2.722,0.046,4.103,0.076c0.517,0.009,1.101,0.021,1.53,0.259c0.403,0.223,0.68,0.726,0.939,1.146
				c0.96,1.514,0.907,2.075-0.473,3.148c-0.848,0.662-1.794,1.202-2.724,1.752c-0.246,0.147-0.656,0.271-0.879,0.165
				c-1.589-0.757-3.403-1.26-4.114-3.158c-0.089-0.24-0.182-0.639-0.06-0.77C199.24,134.628,197.825,135.122,197.124,135.037z"/>
			<path fill-rule="evenodd" clip-rule="evenodd" fill="#1A567B" d="M136.21,110.512c0.364,0.031,0.926,0.005,1.439,0.145
				c0.326,0.087,0.738,0.364,0.854,0.655c0.574,1.504,1.36,1.775,2.864,1.07c0.995-0.464,2.057-0.893,3.125-1.078
				c1.07-0.184,1.692,0.489,1.766,1.52c0.067,1.075-0.605,1.936-1.62,2.054c-2.225,0.257-4.448,0.507-6.674,0.761
				c-1.63,0.186-2.013-0.099-2.036-1.77c-0.006-0.742-0.317-1.042-0.895-1.412c-0.473-0.307-0.739-0.937-1.102-1.424
				c0.505-0.174,1.007-0.362,1.518-0.511C135.631,110.469,135.837,110.512,136.21,110.512z"/>
			<path fill-rule="evenodd" clip-rule="evenodd" fill="#1A567B" d="M124.31,116.337c0.146-0.635,0.151-1.128,0.377-1.492
				c0.202-0.333,0.61-0.641,0.984-0.732c0.201-0.052,0.558,0.354,0.765,0.613c0.186,0.227,0.26,0.544,0.406,0.812
				c0.33,0.637,0.532,1.084-0.383,1.57c-1.162,0.619-2.174,1.523-3.222,2.342c-1.281,1.014-4.246,0.457-5.076-1.015
				c-0.119-0.215-0.061-0.71,0.108-0.875c0.849-0.838,1.715-1.677,2.68-2.366c0.323-0.229,1.003-0.124,1.44,0.033
				C122.993,115.451,123.527,115.871,124.31,116.337z"/>
			<path fill-rule="evenodd" clip-rule="evenodd" fill="#1A567B" d="M140.746,196.022c0.646,0.209,1.521,0.414,2.325,0.766
				c1.48,0.651,2.932,1.391,4.396,2.085c0.874,0.42,0.769,1.174,0.403,1.768c-0.128,0.217-0.957,0.2-1.346,0.025
				c-1.001-0.453-1.888-1.206-2.916-1.553c-1.301-0.437-2.687-0.619-4.046-0.854c-0.554-0.095-1.204,0.143-1.262-0.778
				c-0.049-0.798,0.311-1.146,1.049-1.229C139.735,196.21,140.112,196.127,140.746,196.022z"/>
			<path fill-rule="evenodd" clip-rule="evenodd" fill="#1A567B" d="M132.45,115.443c-1.502,1.252-3.073,1.018-4.103-0.56
				c-0.546-0.836-0.265-1.431,0.665-1.677c0.814-0.215,1.606-0.533,2.352-0.908c0.854-0.43,1.495-0.542,1.98,0.507
				c0.161,0.353,0.684,0.531,1.011,0.821c0.341,0.3,0.902,0.645,0.902,0.964c-0.006,0.44-0.356,1.013-0.734,1.272
				c-0.318,0.223-0.907,0.153-1.356,0.084C132.903,115.904,132.679,115.611,132.45,115.443z"/>
			<path fill-rule="evenodd" clip-rule="evenodd" fill="#1A567B" d="M211.239,158.675c-0.648-1.302,0.646-2.224,1.255-3.301
				c0.171-0.298,1.618-0.343,1.957,0.006c1.153,1.166,0.854,4.02-0.446,5.045c-0.494,0.395-1.219,0.56-1.865,0.701
				c-0.672,0.139-1.009-0.27-0.987-0.945C211.171,159.755,211.204,159.33,211.239,158.675z"/>
			<path fill-rule="evenodd" clip-rule="evenodd" fill="#1A567B" d="M128.509,120.689c0.043-1.448,0.652-2.318,1.913-2.541
				c0.984-0.176,1.484,0.358,1.314,1.333c-0.113,0.637-0.229,1.295-0.19,1.934c0.059,1.071-0.411,1.845-1.277,2.296
				c-0.368,0.188-0.962,0.008-1.427-0.12c-0.313-0.085-0.626-0.327-0.852-0.573c-0.407-0.447-0.752-0.952-1.121-1.435
				C127.353,121.32,127.843,121.053,128.509,120.689z"/>
			<path fill-rule="evenodd" clip-rule="evenodd" fill="#1A567B" d="M214.743,108.992c0.859,0.624,1.741,1.216,2.577,1.867
				c1.03,0.815,1.969,1.744,3.045,2.491c1.028,0.719,1.001,1.675,0.835,2.676c-0.035,0.196-0.557,0.488-0.78,0.436
				c-0.339-0.083-0.646-0.397-0.918-0.664c-1.238-1.222-2.532-2.397-3.659-3.715c-0.672-0.79-1.082-1.816-1.612-2.736
				C214.404,109.23,214.57,109.112,214.743,108.992z"/>
			<path fill-rule="evenodd" clip-rule="evenodd" fill="#1A567B" d="M132.389,119.973c0.054-0.383,0.095-0.769,0.157-1.152
				c0.284-1.706,1.821-2.559,3.475-1.961c0.727,0.261,0.932,0.807,0.591,1.361c-0.419,0.664-1.038,1.204-1.587,1.783
				c-0.202,0.217-0.592,0.349-0.661,0.583c-0.219,0.778-0.782,0.918-1.34,0.646c-0.364-0.18-0.56-0.72-0.831-1.1
				C132.259,120.082,132.324,120.025,132.389,119.973z"/>
			<path fill-rule="evenodd" clip-rule="evenodd" fill="#1A567B" d="M148.221,202.326c0.078-1.224,0.703-2.129,1.891-2.226
				c1.061-0.087,2.188,0.167,3.232,0.457c0.331,0.093,0.672,0.778,0.682,1.203c0.006,0.222-0.656,0.503-1.052,0.697
				C151.398,203.24,149.844,202.676,148.221,202.326z"/>
			<path fill-rule="evenodd" clip-rule="evenodd" fill="#1A567B" d="M135.422,110.324c-0.224-0.774-0.513-1.521-0.623-2.292
				c-0.042-0.308,0.295-0.947,0.475-0.955c0.428-0.021,1.051,0.12,1.275,0.426C137.698,109.079,137.554,109.426,135.422,110.324z"/>
			<path fill-rule="evenodd" clip-rule="evenodd" fill="#1A567B" d="M134.06,108.93c-0.452,0.306-1.011,0.949-1.332,0.84
				c-0.632-0.207-1.129-0.823-1.685-1.27c0.538-0.432,1.036-1.121,1.62-1.202c0.417-0.056,0.944,0.708,1.423,1.106
				C134.077,108.582,134.069,108.758,134.06,108.93z"/>
		</g>
	</g>
	<g>
		<g>
			<path fill="#333333" d="M294.783,143.278l-16.98,23.177h-9.378v-61.922h10.614v42.284l15.744-21.32l15.836,21.584v-42.547h10.613
				v61.922h-9.376L294.783,143.278z"/>
			<path fill="#333333" d="M328.309,104.533h10.44v18.398c2.945-1.826,6.158-2.739,9.637-2.739c3.013,0,5.753,0.526,8.229,1.589
				c2.479,1.063,4.6,2.509,6.366,4.336c1.773,1.828,3.142,3.967,4.119,6.41c0.97,2.45,1.456,5.061,1.456,7.832v26.097h-10.35
				l-0.085-26.184c0-1.297-0.253-2.538-0.756-3.715c-0.499-1.179-1.194-2.212-2.079-3.097c-0.883-0.887-1.916-1.578-3.094-2.079
				c-1.18-0.5-2.451-0.751-3.807-0.751c-1.234,0-2.427,0.263-3.583,0.796c-1.146,0.53-2.166,1.254-3.049,2.166
				c-0.883,0.916-1.59,1.961-2.122,3.14c-0.53,1.182-0.798,2.391-0.798,3.628v26.097h-10.525V104.533z"/>
			<path fill="#333333" d="M384.388,144.959c0.063,1.829,0.473,3.539,1.243,5.132c0.763,1.589,1.767,2.977,3.007,4.156
				c1.235,1.181,2.683,2.108,4.334,2.786c1.652,0.68,3.387,1.015,5.216,1.015c3.066,0,5.691-0.75,7.875-2.251
				c2.181-1.506,3.774-3.524,4.775-6.06h11.235c-1.003,3.361-2.328,6.224-3.979,8.576c-1.654,2.364-3.542,4.279-5.666,5.754
				c-2.12,1.473-4.404,2.55-6.852,3.229c-2.448,0.674-4.911,1.017-7.39,1.017c-3.356,0-6.501-0.635-9.42-1.903
				c-2.92-1.269-5.458-2.976-7.623-5.131c-2.161-2.151-3.873-4.689-5.13-7.606c-1.258-2.919-1.886-6.061-1.886-9.422
				c0-3.361,0.628-6.501,1.886-9.421c1.257-2.919,2.969-5.452,5.13-7.607c2.165-2.152,4.703-3.864,7.623-5.13
				c2.919-1.268,6.063-1.9,9.42-1.9c3.714,0,7.048,0.677,9.999,2.03c2.947,1.361,5.452,3.175,7.516,5.44
				c2.063,2.275,3.673,4.898,4.823,7.875c1.149,2.978,1.753,6.118,1.812,9.421H384.388z M409.954,136.024
				c-2.241-3.771-6.133-5.69-11.678-5.75c-5.659,0.178-9.614,2.093-11.852,5.75H409.954z"/>
			<path fill="#333333" d="M437.289,144.959c0.054,1.829,0.466,3.539,1.236,5.132c0.768,1.589,1.77,2.977,3.005,4.156
				c1.241,1.181,2.684,2.108,4.339,2.786c1.651,0.68,3.39,1.015,5.217,1.015c3.067,0,5.692-0.75,7.872-2.251
				c2.184-1.506,3.775-3.524,4.778-6.06h11.232c-1.001,3.361-2.331,6.224-3.98,8.576c-1.651,2.364-3.536,4.279-5.66,5.754
				c-2.124,1.473-4.409,2.55-6.855,3.229c-2.446,0.674-4.905,1.017-7.387,1.017c-3.36,0-6.502-0.635-9.418-1.903
				c-2.92-1.269-5.464-2.976-7.626-5.131c-2.164-2.151-3.872-4.689-5.129-7.606c-1.26-2.919-1.886-6.061-1.886-9.422
				c0-3.361,0.626-6.501,1.886-9.421c1.257-2.919,2.965-5.452,5.129-7.607c2.162-2.152,4.706-3.864,7.626-5.13
				c2.916-1.268,6.058-1.9,9.418-1.9c3.716,0,7.048,0.677,9.998,2.03c2.946,1.361,5.454,3.175,7.521,5.44
				c2.058,2.275,3.667,4.898,4.814,7.875c1.149,2.978,1.756,6.118,1.814,9.421H437.289z M462.85,136.024
				c-2.24-3.771-6.128-5.69-11.674-5.75c-5.661,0.178-9.612,2.093-11.856,5.75H462.85z"/>
			<path fill="#333333" d="M481.073,104.533h10.259v61.922h-10.259V104.533z"/>
			<path fill="#333333" d="M498.058,104.533h10.437v18.398c2.95-1.826,6.164-2.739,9.642-2.739c3.006,0,5.751,0.526,8.226,1.589
				c2.478,1.063,4.6,2.509,6.369,4.336c1.771,1.828,3.14,3.967,4.11,6.41c0.978,2.45,1.464,5.061,1.464,7.832v26.097h-10.35
				l-0.086-26.184c0-1.297-0.255-2.538-0.757-3.715c-0.501-1.179-1.194-2.212-2.075-3.097c-0.889-0.887-1.921-1.578-3.099-2.079
				c-1.182-0.5-2.444-0.751-3.803-0.751c-1.238,0-2.434,0.263-3.582,0.796c-1.149,0.53-2.168,1.254-3.053,2.166
				c-0.887,0.916-1.591,1.961-2.12,3.14c-0.534,1.182-0.8,2.391-0.8,3.628v26.097h-10.523V104.533z"/>
			<path fill="#333333" d="M543.435,144.25c0-3.361,0.631-6.501,1.905-9.421c1.265-2.919,2.989-5.452,5.173-7.607
				c2.178-2.152,4.731-3.864,7.648-5.13c2.921-1.268,6.057-1.9,9.424-1.9c3.36,0,6.5,0.633,9.42,1.9
				c2.92,1.267,5.454,2.978,7.608,5.13c2.153,2.155,3.86,4.688,5.127,7.607c1.27,2.919,1.9,6.06,1.9,9.421
				c0,3.361-0.631,6.502-1.9,9.422c-1.267,2.917-2.974,5.456-5.127,7.606c-2.154,2.155-4.688,3.862-7.608,5.131
				c-2.92,1.268-6.06,1.903-9.42,1.903c-3.367,0-6.503-0.635-9.424-1.903c-2.917-1.269-5.471-2.976-7.648-5.131
				c-2.184-2.151-3.908-4.689-5.173-7.606C544.065,150.753,543.435,147.611,543.435,144.25z M553.697,144.25
				c0,1.885,0.364,3.67,1.105,5.351c0.743,1.685,1.732,3.142,2.976,4.379c1.24,1.239,2.707,2.227,4.391,2.964
				c1.687,0.737,3.478,1.104,5.373,1.104c1.89,0,3.68-0.366,5.368-1.104c1.681-0.737,3.147-1.725,4.389-2.964
				c1.243-1.237,2.232-2.695,2.972-4.379c0.739-1.681,1.114-3.465,1.114-5.351c0-1.886-0.375-3.671-1.114-5.354
				c-0.739-1.678-1.729-3.14-2.972-4.377c-1.241-1.235-2.708-2.225-4.389-2.964c-1.688-0.735-3.479-1.103-5.368-1.103
				c-1.896,0-3.687,0.368-5.373,1.103c-1.684,0.74-3.15,1.729-4.391,2.964c-1.243,1.237-2.232,2.699-2.976,4.377
				C554.062,140.58,553.697,142.364,553.697,144.25z"/>
			<path fill="#333333" d="M627.026,122.222h10.264v24.064c0,2.772-0.533,5.365-1.598,7.783c-1.059,2.418-2.485,4.556-4.283,6.414
				c-1.802,1.857-3.928,3.315-6.371,4.377c-2.45,1.061-5.057,1.595-7.832,1.595c-2.771,0-5.365-0.534-7.781-1.595
				c-2.42-1.063-4.556-2.521-6.416-4.377c-1.856-1.858-3.314-4.009-4.377-6.458c-1.062-2.447-1.592-5.055-1.592-7.827v-23.976h10.26
				v24.064c0,1.355,0.269,2.621,0.797,3.805c0.53,1.177,1.24,2.207,2.126,3.095c0.883,0.883,1.928,1.576,3.138,2.078
				c1.208,0.503,2.49,0.751,3.846,0.751c1.358,0,2.627-0.248,3.807-0.751c1.176-0.501,2.212-1.195,3.093-2.078
				c0.889-0.889,1.596-1.918,2.124-3.095c0.534-1.184,0.797-2.45,0.797-3.805V122.222z"/>
			<path fill="#333333" d="M665.15,154.069c0.06-1.771-0.545-3.036-1.813-3.806c-1.269-0.761-3.141-1.47-5.615-2.12
				c-1.653-0.413-3.271-0.914-4.865-1.504c-1.593-0.588-3.051-1.371-4.381-2.345c-1.324-0.972-2.43-2.182-3.314-3.628
				c-0.883-1.442-1.444-3.229-1.681-5.351c-0.179-2.12,0.117-4.097,0.885-5.926c0.761-1.826,1.884-3.419,3.359-4.776
				c1.476-1.358,3.198-2.432,5.175-3.228c1.975-0.8,4.081-1.194,6.326-1.194c1.884,0,3.655,0.323,5.305,0.972
				c1.65,0.65,3.127,1.488,4.426,2.521c1.295,1.032,2.354,2.184,3.186,3.452c0.822,1.265,1.386,2.519,1.68,3.756h-10.354
				c-0.587-1.119-2.118-1.68-4.597-1.68c-1.476,0-2.803,0.443-3.979,1.328c-1.181,0.885-1.592,2.153-1.241,3.804
				c0.238,1.003,1.109,1.801,2.614,2.387c1.5,0.593,3.756,1.388,6.764,2.391c1.768,0.59,3.42,1.295,4.954,2.122
				c1.53,0.827,2.875,1.829,4.026,3.007c1.146,1.183,2.047,2.594,2.695,4.247c0.648,1.651,0.973,3.568,0.973,5.75
				c0,2.24-0.458,4.23-1.369,5.971c-0.914,1.738-2.136,3.216-3.673,4.422c-1.533,1.209-3.303,2.139-5.304,2.788
				c-2.009,0.646-4.102,0.972-6.283,0.972c-1.948,0-3.908-0.368-5.883-1.104c-1.975-0.741-3.746-1.771-5.305-3.098
				c-1.568-1.326-2.846-2.948-3.85-4.865c-1.003-1.915-1.504-4.025-1.504-6.327h10.263c0.058,1.595,0.663,2.995,1.823,4.201
				c1.162,1.212,2.688,1.814,4.587,1.814c1.785,0,3.21-0.528,4.28-1.591C664.528,156.369,665.09,155.252,665.15,154.069z"/>
			<path fill="#333333" d="M690.541,144.959c0.054,1.829,0.467,3.539,1.236,5.132c0.769,1.589,1.768,2.977,3.005,4.156
				c1.238,1.181,2.686,2.108,4.335,2.786c1.649,0.68,3.392,1.015,5.226,1.015c3.061,0,5.688-0.75,7.865-2.251
				c2.184-1.506,3.775-3.524,4.778-6.06h11.234c-1.005,3.361-2.331,6.224-3.98,8.576c-1.651,2.364-3.537,4.279-5.663,5.754
				c-2.121,1.473-4.406,2.55-6.855,3.229c-2.442,0.674-4.903,1.017-7.379,1.017c-3.363,0-6.508-0.635-9.427-1.903
				c-2.919-1.269-5.459-2.976-7.622-5.131c-2.165-2.151-3.874-4.689-5.13-7.606c-1.259-2.919-1.886-6.061-1.886-9.422
				c0-3.361,0.627-6.501,1.886-9.421c1.256-2.919,2.965-5.452,5.13-7.607c2.163-2.152,4.703-3.864,7.622-5.13
				c2.919-1.268,6.063-1.9,9.427-1.9c3.711,0,7.045,0.677,9.989,2.03c2.948,1.361,5.457,3.175,7.521,5.44
				c2.064,2.275,3.671,4.898,4.819,7.875c1.15,2.978,1.756,6.118,1.812,9.421H690.541z M716.104,136.024
				c-2.242-3.771-6.136-5.69-11.678-5.75c-5.663,0.178-9.612,2.093-11.854,5.75H716.104z"/>
		</g>
		<g>
			<path fill="#1A567B" d="M326.177,209.835c0.054,9.546-1.637,16.461-5.078,20.746c-3.444,4.283-7.281,7.193-11.502,8.722
				c-4.224,1.535-8.564,2.3-13.021,2.3c-4.458,0-8.649-0.852-12.586-2.562c-3.938-1.706-7.378-4.035-10.332-6.985
				c-2.948-2.954-5.279-6.395-6.986-10.331c-1.707-3.934-2.559-8.131-2.559-12.588s0.852-8.65,2.559-12.585
				c1.707-3.934,4.038-7.378,6.986-10.327c2.954-2.955,6.395-5.281,10.332-6.991c3.937-1.705,8.128-2.561,12.586-2.561
				c4.457,0,8.65,0.856,12.588,2.561c3.935,1.71,7.378,4.037,10.329,6.991c2.259,2.256,4.14,4.801,5.642,7.636h-7.293
				c-0.812-1.166-1.735-2.244-2.773-3.237c-2.375-2.451-5.152-4.375-8.334-5.775c-3.185-1.4-6.568-2.097-10.158-2.097
				s-6.987,0.697-10.198,2.087c-3.212,1.39-6.02,3.29-8.42,5.694c-2.402,2.407-4.3,5.202-5.684,8.391
				c-1.389,3.188-2.086,6.579-2.086,10.173c0,3.593,0.697,6.999,2.086,10.214c1.384,3.22,3.281,6.029,5.684,8.435
				c2.4,2.406,5.208,4.306,8.42,5.694c3.211,1.392,6.608,2.087,10.198,2.087s7.061-0.563,10.418-1.692
				c3.355-1.128,6.252-3.314,8.679-6.555c2.432-3.239,3.586-7.032,3.472-11.37h-20.311v-6.075H326.177z"/>
			<path fill="#1A567B" d="M338.242,217.734c0,2.432,0.458,4.73,1.39,6.9c0.924,2.169,2.195,4.066,3.822,5.685
				c1.615,1.622,3.511,2.896,5.68,3.821c2.175,0.927,4.472,1.388,6.901,1.388c2.431,0,4.733-0.461,6.902-1.388
				c2.17-0.925,4.065-2.199,5.686-3.821c1.156-1.154,2.14-2.486,2.95-3.992h6.684l-0.262,0.695
				c-1.216,2.892-2.905,5.424-5.074,7.594c-2.17,2.172-4.706,3.878-7.597,5.123c-2.894,1.243-5.992,1.864-9.289,1.864
				s-6.396-0.622-9.285-1.864c-2.896-1.245-5.426-2.951-7.597-5.123c-2.17-2.17-3.876-4.702-5.123-7.594
				c-1.246-2.895-1.863-5.992-1.863-9.288c0-3.299,0.617-6.396,1.863-9.289c1.247-2.892,2.953-5.424,5.123-7.595
				c2.171-2.17,4.701-3.874,7.597-5.123c2.889-1.245,5.988-1.866,9.285-1.866s6.396,0.621,9.289,1.866
				c2.891,1.249,5.427,2.953,7.597,5.123c2.169,2.17,3.858,4.703,5.074,7.595c1.041,2.374,1.651,4.861,1.826,7.465h-41.494
				C338.271,216.549,338.242,217.153,338.242,217.734z M368.623,205.148c-1.62-1.619-3.516-2.896-5.686-3.821
				c-2.169-0.924-4.472-1.391-6.902-1.391c-2.43,0-4.727,0.467-6.901,1.391c-2.169,0.925-4.064,2.203-5.68,3.821
				c-1.395,1.388-2.521,2.949-3.387,4.687h31.853C371.054,208.097,369.953,206.537,368.623,205.148z"/>
			<path fill="#1A567B" d="M384.073,217.734c0-3.299,0.62-6.396,1.865-9.289c1.245-2.892,2.951-5.424,5.121-7.595
				c2.172-2.17,4.702-3.874,7.595-5.123c2.892-1.245,5.991-1.866,9.291-1.866c3.299,0,6.391,0.621,9.286,1.866
				c2.895,1.249,5.426,2.953,7.595,5.123c2.167,2.17,3.876,4.703,5.123,7.595c1.245,2.893,1.866,5.99,1.866,9.289
				c0,3.295-0.621,6.393-1.866,9.288c-1.247,2.892-2.956,5.424-5.123,7.594c-2.169,2.172-4.7,3.878-7.595,5.123
				c-2.896,1.243-5.987,1.864-9.286,1.864c-3.3,0-6.399-0.622-9.291-1.864c-2.893-1.245-5.423-2.951-7.595-5.123
				c-2.17-2.17-3.876-4.702-5.121-7.594C384.693,224.127,384.073,221.029,384.073,217.734z M390.147,217.734
				c0,2.432,0.465,4.73,1.392,6.9c0.924,2.169,2.201,4.066,3.82,5.685c1.616,1.622,3.514,2.896,5.684,3.821
				c2.171,0.927,4.47,1.388,6.902,1.388c2.431,0,4.729-0.461,6.899-1.388c2.168-0.925,4.065-2.199,5.685-3.821
				c1.618-1.619,2.895-3.516,3.821-5.685c0.924-2.17,1.386-4.468,1.386-6.9c0-2.429-0.462-4.731-1.386-6.901
				c-0.927-2.168-2.203-4.064-3.821-5.684c-1.619-1.619-3.517-2.896-5.685-3.821c-2.17-0.924-4.469-1.391-6.899-1.391
				c-2.433,0-4.731,0.467-6.902,1.391c-2.17,0.925-4.067,2.203-5.684,3.821c-1.619,1.62-2.896,3.516-3.82,5.684
				C390.612,213.003,390.147,215.305,390.147,217.734z"/>
			<path fill="#1A567B" d="M461.586,228.599c0.056-1.963-0.303-3.494-1.084-4.59c-0.781-1.098-1.926-1.994-3.43-2.687
				c-1.504-0.693-3.384-1.328-5.638-1.907c-2.262-0.575-4.346-1.27-6.255-2.077c-1.911-0.808-3.558-2.021-4.946-3.64
				c-1.388-1.614-2.229-3.638-2.517-6.062c-0.232-1.907,0.029-3.669,0.78-5.285c0.751-1.617,1.806-3.043,3.171-4.289
				c1.356-1.241,2.991-2.253,4.904-3.031c1.909-0.778,3.871-1.169,5.898-1.169c2.315,0,4.325,0.379,6.034,1.129
				c1.705,0.753,3.137,1.721,4.296,2.908c1.159,1.187,2.069,2.389,2.734,3.604c0.664,1.214,1.055,2.257,1.173,3.121h-6.509
				c-0.521-1.675-1.506-2.962-2.954-3.862c-1.446-0.895-3.038-1.344-4.774-1.344c-1.157,0-2.398,0.23-3.731,0.697
				c-1.332,0.46-2.563,1.388-3.688,2.774c-1.131,1.39-1.553,2.865-1.259,4.428c0.288,1.39,0.969,2.46,2.039,3.21
				c1.072,0.755,2.485,1.45,4.253,2.085c1.764,0.637,3.716,1.301,5.86,1.998c2.14,0.695,4.149,1.634,6.032,2.821
				c1.879,1.187,3.341,2.677,4.384,4.468c1.038,1.797,1.561,4.054,1.561,6.772c0,2.027-0.423,3.849-1.254,5.469
				c-0.845,1.619-1.972,2.979-3.389,4.079s-3.069,1.938-4.946,2.519c-1.884,0.576-3.835,0.866-5.862,0.866s-4.02-0.362-5.988-1.084
				c-1.968-0.724-3.703-1.736-5.207-3.038c-1.504-1.302-2.705-2.865-3.604-4.687c-0.898-1.826-1.318-3.981-1.257-6.468h6.074
				c0,1.493,0.303,2.881,0.915,4.168c0.609,1.293,1.716,2.469,3.314,3.532c1.595,1.059,3.649,1.56,6.147,1.502
				c2.852,0,4.986-0.68,6.407-2.037C460.7,232.134,461.471,230.504,461.586,228.599z"/>
			<path fill="#1A567B" d="M478.601,217.734c0,2.432,0.461,4.73,1.389,6.9c0.923,2.169,2.199,4.066,3.817,5.685
				c1.62,1.622,3.514,2.896,5.684,3.821c2.175,0.927,4.474,1.388,6.904,1.388c2.43,0,4.729-0.461,6.899-1.388
				c2.173-0.925,4.068-2.199,5.684-3.821c1.16-1.154,2.143-2.486,2.955-3.992h6.682l-0.258,0.695
				c-1.216,2.892-2.91,5.424-5.08,7.594c-2.171,2.172-4.702,3.878-7.595,5.123c-2.895,1.243-5.99,1.864-9.287,1.864
				c-3.299,0-6.394-0.622-9.287-1.864c-2.896-1.245-5.429-2.951-7.597-5.123c-2.168-2.17-3.878-4.702-5.12-7.594
				c-1.249-2.895-1.869-5.992-1.869-9.288c0-3.299,0.62-6.396,1.869-9.289c1.242-2.892,2.952-5.424,5.12-7.595
				s4.7-3.874,7.597-5.123c2.894-1.245,5.988-1.866,9.287-1.866c3.297,0,6.393,0.621,9.287,1.866
				c2.893,1.249,5.424,2.953,7.595,5.123c2.17,2.17,3.864,4.703,5.08,7.595l0.258,0.608h-6.769
				c-0.756-1.446-1.708-2.749-2.868-3.905c-1.615-1.619-3.511-2.896-5.684-3.821c-2.17-0.924-4.47-1.391-6.899-1.391
				c-2.431,0-4.729,0.467-6.904,1.391c-2.17,0.925-4.063,2.203-5.684,3.821c-1.618,1.62-2.895,3.516-3.817,5.684
				C479.062,213.003,478.601,215.305,478.601,217.734z"/>
			<path fill="#1A567B" d="M522.692,182.403c0-1.038,0.351-1.909,1.042-2.603c0.697-0.695,1.564-1.043,2.604-1.043
				c1.044,0,1.91,0.348,2.607,1.043c0.694,0.693,1.037,1.565,1.037,2.603c0,1.043-0.343,1.913-1.037,2.605
				c-0.697,0.695-1.563,1.04-2.607,1.04c-1.04,0-1.907-0.345-2.604-1.04C523.043,184.315,522.692,183.446,522.692,182.403z
				 M523.218,196.119h6.075v43.401h-6.075V196.119z"/>
			<path fill="#1A567B" d="M540.488,217.734c0,2.432,0.463,4.73,1.388,6.9c0.924,2.169,2.199,4.066,3.823,5.685
				c1.621,1.622,3.515,2.896,5.686,3.821c2.167,0.927,4.468,1.388,6.899,1.388c2.43,0,4.731-0.461,6.901-1.388
				c2.166-0.925,4.063-2.199,5.683-3.821c1.157-1.154,2.141-2.486,2.952-3.992h6.681l-0.26,0.695
				c-1.214,2.892-2.905,5.424-5.073,7.594c-2.171,2.172-4.707,3.878-7.596,5.123c-2.896,1.243-5.993,1.864-9.288,1.864
				c-3.302,0-6.398-0.622-9.287-1.864c-2.893-1.245-5.423-2.951-7.597-5.123c-2.171-2.17-3.874-4.702-5.123-7.594
				c-1.242-2.895-1.866-5.992-1.866-9.288c0-3.299,0.624-6.396,1.866-9.289c1.249-2.892,2.952-5.424,5.123-7.595
				c2.174-2.17,4.704-3.874,7.597-5.123c2.889-1.245,5.985-1.866,9.287-1.866c3.295,0,6.393,0.621,9.288,1.866
				c2.889,1.249,5.425,2.953,7.596,5.123c2.168,2.17,3.859,4.703,5.073,7.595c1.048,2.374,1.652,4.861,1.826,7.465h-41.494
				C540.516,216.549,540.488,217.153,540.488,217.734z M570.868,205.148c-1.619-1.619-3.517-2.896-5.683-3.821
				c-2.17-0.924-4.472-1.391-6.901-1.391c-2.432,0-4.732,0.467-6.899,1.391c-2.171,0.925-4.064,2.203-5.686,3.821
				c-1.389,1.388-2.518,2.949-3.387,4.687h31.856C573.299,208.097,572.2,206.537,570.868,205.148z"/>
			<path fill="#1A567B" d="M619.217,213.481c0-1.853-0.349-3.587-1.039-5.21c-0.695-1.62-1.649-3.038-2.863-4.251
				c-1.216-1.216-2.635-2.171-4.258-2.867c-1.62-0.695-3.327-1.038-5.119-1.038c-1.794,0-3.498,0.374-5.122,1.127
				c-1.621,0.751-3.038,1.748-4.251,2.995c-1.216,1.245-2.187,2.673-2.91,4.293c-0.722,1.623-1.084,3.274-1.084,4.951l0.085,26.039
				h-6.16v-43.401h6.075v3.996c0.577-0.927,1.361-1.783,2.345-2.563s2.067-1.446,3.254-1.996c1.186-0.55,2.445-0.968,3.775-1.258
				c1.33-0.291,2.666-0.436,3.993-0.436c2.657,0,5.178,0.519,7.553,1.564c2.368,1.042,4.441,2.443,6.207,4.209
				c1.76,1.766,3.165,3.849,4.208,6.249c1.044,2.405,1.564,4.935,1.564,7.597l0.084,26.039h-6.25L619.217,213.481z"/>
			<path fill="#1A567B" d="M636.925,217.734c0,2.432,0.467,4.73,1.389,6.9c0.928,2.169,2.205,4.066,3.822,5.685
				c1.618,1.622,3.512,2.896,5.684,3.821c2.17,0.927,4.47,1.388,6.902,1.388s4.731-0.461,6.9-1.388
				c2.169-0.925,4.064-2.199,5.684-3.821c1.161-1.154,2.143-2.486,2.955-3.992h6.686l-0.264,0.695
				c-1.214,2.892-2.909,5.424-5.082,7.594c-2.168,2.172-4.698,3.878-7.593,5.123c-2.895,1.243-5.99,1.864-9.286,1.864
				c-3.3,0-6.396-0.622-9.289-1.864c-2.893-1.245-5.423-2.951-7.596-5.123c-2.172-2.17-3.876-4.702-5.12-7.594
				c-1.247-2.895-1.869-5.992-1.869-9.288c0-3.299,0.622-6.396,1.869-9.289c1.244-2.892,2.948-5.424,5.12-7.595
				c2.173-2.17,4.703-3.874,7.596-5.123c2.894-1.245,5.989-1.866,9.289-1.866c3.296,0,6.392,0.621,9.286,1.866
				c2.895,1.249,5.425,2.953,7.593,5.123c2.173,2.17,3.868,4.703,5.082,7.595l0.264,0.608h-6.774
				c-0.753-1.446-1.705-2.749-2.866-3.905c-1.619-1.619-3.515-2.896-5.684-3.821c-2.169-0.924-4.468-1.391-6.9-1.391
				s-4.732,0.467-6.902,1.391c-2.172,0.925-4.065,2.203-5.684,3.821c-1.617,1.62-2.895,3.516-3.822,5.684
				C637.392,213.003,636.925,215.305,636.925,217.734z"/>
			<path fill="#1A567B" d="M687.185,217.734c0,2.432,0.464,4.73,1.389,6.9c0.926,2.169,2.199,4.066,3.82,5.685
				c1.62,1.622,3.514,2.896,5.686,3.821c2.166,0.927,4.469,1.388,6.9,1.388c2.431,0,4.731-0.461,6.901-1.388
				c2.17-0.925,4.063-2.199,5.683-3.821c1.159-1.154,2.145-2.486,2.956-3.992h6.685l-0.264,0.695
				c-1.213,2.892-2.907,5.424-5.08,7.594c-2.168,2.172-4.7,3.878-7.593,5.123c-2.896,1.243-5.987,1.864-9.288,1.864
				c-3.296,0-6.393-0.622-9.287-1.864c-2.895-1.245-5.423-2.951-7.598-5.123c-2.169-2.17-3.875-4.702-5.12-7.594
				c-1.245-2.895-1.866-5.992-1.866-9.288c0-3.299,0.621-6.396,1.866-9.289c1.245-2.892,2.951-5.424,5.12-7.595
				c2.175-2.17,4.703-3.874,7.598-5.123c2.895-1.245,5.991-1.866,9.287-1.866c3.301,0,6.393,0.621,9.288,1.866
				c2.893,1.249,5.425,2.953,7.593,5.123c2.173,2.17,3.867,4.703,5.08,7.595c1.042,2.374,1.65,4.861,1.824,7.465h-41.494
				C687.211,216.549,687.185,217.153,687.185,217.734z M717.563,205.148c-1.619-1.619-3.513-2.896-5.683-3.821
				c-2.17-0.924-4.471-1.391-6.901-1.391c-2.432,0-4.734,0.467-6.9,1.391c-2.172,0.925-4.065,2.203-5.686,3.821
				c-1.391,1.388-2.517,2.949-3.389,4.687h31.86C719.995,208.097,718.894,206.537,717.563,205.148z"/>
		</g>
	</g>
</g>
</svg>
